<?xml version="1.0"?>
<svg xmlns="http://www.w3.org/2000/svg" width="2000" height="765.1" style="enable-background:new 0 0 2000 765.1" xml:space="preserve">
  <style>.st0{fill:#f7d637}</style>
  <path class="st0" d="M464.2 651.3v2.3s-107 16.9-208.5 16.9C148.7 670.4 0 579.2 0 366.2 0 151 104.8 21.4 264.8 21.4c93.5 0 160 21.4 160 21.4l-46.2 160h-2.3c-18-55.2-49.6-154.4-135.2-154.4S120.5 145.3 120.5 356s56.3 291.8 126.2 291.8 73.2-62 73.2-83.4V353.7c0-43.9-19.2-71-45.1-82.3v-2.3H471v2.3c-12.4 5.6-45.1 24.8-45.1 82.3v213c0 46.2 14.7 72.2 38.3 84.6zM829.3 582.5V318.8c0-54.1-18-94.6-71-94.6-59.7 0-120.6 67.6-140.8 93.5l-1.1.1c0-9.9 1.1-19.8 1.1-29.7V0h-3.4c-27 24.8-76.6 53.3-129.6 53.3l.1 2.9c11.8 7.5 33.7 26.9 33.7 74.6v457.5c0 33.6-13.6 54.7-32.7 71.3v1.9h162.3v-2.9c-10.2-12.5-30.4-31.9-30.4-72.6V332.6c69.9-61.9 112.7-49.7 112.7 13.4v240c0 46.2-23.7 64.2-32.7 73.2v2.3h161.1v-2.3c-7.9-7.9-29.3-27.1-29.3-76.7zM1046.8 224.2c-97.7 0-176.9 100.6-176.9 224.8 0 124.1 79.2 224.8 176.9 224.8s176.9-100.6 176.9-224.8c0-124.1-79.2-224.8-176.9-224.8zm0 429.3c-38 0-68.7-59.7-68.7-204.5s30.8-205.6 68.7-205.6c38 0 68.7 59.7 68.7 205.6s-32.7 204.5-68.7 204.5zM1465.9 345.9l31.5-110.4c-40.6-10.1-59.7-11.3-104.8-11.3s-144.2 30.4-144.2 138.6c0 84.5 56.3 105.9 108.2 134.1 51.8 28.2 98 41.7 98 87.9S1418.5 649 1387 649s-83.4-16.9-117.2-123.9h-2.3l-47.3 126.2c58.6 16.9 103.7 22.5 138.6 22.5 34.9 0 161.1-15.8 161.1-143.1 0-80-55.2-107-112.7-135.2-57.5-28.2-93.5-42.8-93.5-86.8s39.4-63.1 58.6-60.8c19.2 2.3 66.5 9 90.1 98h3.5zM1945.9 349.3l31.5-110.4c-40.6-10.1-59.7-11.3-104.8-11.3s-144.2 30.4-144.2 138.6c0 84.5 56.3 105.9 108.2 134.1 51.8 28.2 98 41.7 98 87.9s-36.1 64.2-67.6 64.2-83.4-16.9-117.2-123.9h-2.3l-47.3 126.2c58.6 16.9 103.7 22.5 138.6 22.5 34.9 0 161.1-15.8 161.1-143.1 0-80-55.2-107-112.7-135.2-57.5-28.2-92.4-42.8-92.4-86.8s38.3-63.1 57.5-60.8c19.2 2.3 66.5 9 90.1 98h3.5z"/>
  <path class="st0" d="M1751 236.6V258l-7.9 7.9H1662v369.6c0 33.8 1 59 19.2 69.9 17.6 10.5 49.6 9 84.5-14.6l2.3 3.4c-27 30.4-58.6 71-127.3 71-64.2 0-84.5-47.3-84.5-77.7V266.1h-53s-3.4 1.1 0-4.5c41.7-21.4 107-77.7 156.6-162.3h2.3v137.5h88.9z"/>
</svg>
